<svg width="92" height="115" viewBox="0 0 92 115" fill="none" xmlns="http://www.w3.org/2000/svg">
<g clip-path="url(#clip0_6_11)">
<path d="M68 28.188H22C10.9543 28.188 2 37.1423 2 48.188V94.188C2 105.234 10.9543 114.188 22 114.188H68C79.0457 114.188 88 105.234 88 94.188V48.188C88 37.1423 79.0457 28.188 68 28.188Z" fill="white"/>
<path d="M44 96.188C57.2548 96.188 68 85.4428 68 72.188C68 58.9332 57.2548 48.188 44 48.188C30.7452 48.188 20 58.9332 20 72.188C20 85.4428 30.7452 96.188 44 96.188Z" fill="#943106"/>
<path d="M43.922 91.688C54.7346 91.688 63.5 82.9226 63.5 72.11C63.5 61.2974 54.7346 52.532 43.922 52.532C33.1094 52.532 24.344 61.2974 24.344 72.11C24.344 82.9226 33.1094 91.688 43.922 91.688Z" fill="white"/>
</g>
<g filter="url(#filter0_d_6_11)">
<path d="M11.2529 17H7.43759V4.63636H11.422C12.6213 4.63636 13.6476 4.88388 14.5008 5.37891C15.354 5.86991 16.008 6.57623 16.4628 7.49787C16.9176 8.41548 17.145 9.5142 17.145 10.794C17.145 12.0819 16.9156 13.1907 16.4568 14.1204C15.998 15.046 15.3299 15.7584 14.4525 16.2575C13.5751 16.7525 12.5086 17 11.2529 17ZM8.93475 15.6719H11.1563C12.1786 15.6719 13.0258 15.4747 13.6979 15.0803C14.37 14.6858 14.8711 14.1244 15.2011 13.396C15.5311 12.6675 15.6961 11.8002 15.6961 10.794C15.6961 9.79593 15.5331 8.93667 15.2071 8.21626C14.8811 7.49183 14.3941 6.93643 13.7462 6.55007C13.0982 6.15968 12.2913 5.96449 11.3254 5.96449H8.93475V15.6719ZM23.2302 17.1932C22.3931 17.1932 21.6586 16.994 21.0267 16.5955C20.3989 16.1971 19.9079 15.6397 19.5537 14.9233C19.2036 14.2069 19.0285 13.3698 19.0285 12.4119C19.0285 11.446 19.2036 10.6029 19.5537 9.88246C19.9079 9.16205 20.3989 8.60263 21.0267 8.20419C21.6586 7.80575 22.3931 7.60653 23.2302 7.60653C24.0673 7.60653 24.7998 7.80575 25.4276 8.20419C26.0595 8.60263 26.5505 9.16205 26.9007 9.88246C27.2548 10.6029 27.4319 11.446 27.4319 12.4119C27.4319 13.3698 27.2548 14.2069 26.9007 14.9233C26.5505 15.6397 26.0595 16.1971 25.4276 16.5955C24.7998 16.994 24.0673 17.1932 23.2302 17.1932ZM23.2302 15.9134C23.8661 15.9134 24.3893 15.7504 24.7998 15.4244C25.2103 15.0984 25.5142 14.6697 25.7114 14.1385C25.9086 13.6072 26.0072 13.0317 26.0072 12.4119C26.0072 11.7921 25.9086 11.2146 25.7114 10.6793C25.5142 10.1441 25.2103 9.71141 24.7998 9.38139C24.3893 9.05137 23.8661 8.88636 23.2302 8.88636C22.5943 8.88636 22.0711 9.05137 21.6606 9.38139C21.2501 9.71141 20.9462 10.1441 20.749 10.6793C20.5518 11.2146 20.4532 11.7921 20.4532 12.4119C20.4532 13.0317 20.5518 13.6072 20.749 14.1385C20.9462 14.6697 21.2501 15.0984 21.6606 15.4244C22.0711 15.7504 22.5943 15.9134 23.2302 15.9134ZM31.3921 17L28.5669 7.72727H30.064L32.0683 14.8267H32.1649L34.145 7.72727H35.6663L37.6222 14.8026H37.7188L39.7231 7.72727H41.2203L38.395 17H36.9944L34.966 9.87642H34.8211L32.7927 17H31.3921ZM44.5285 11.4219V17H43.1038V7.72727H44.4802V9.17614H44.6009C44.8183 8.70526 45.1483 8.32694 45.591 8.04119C46.0337 7.75142 46.6052 7.60653 47.3055 7.60653C47.9333 7.60653 48.4827 7.73532 48.9536 7.9929C49.4244 8.24645 49.7907 8.63281 50.0523 9.15199C50.3139 9.66714 50.4447 10.3191 50.4447 11.108V17H49.02V11.2045C49.02 10.4761 48.8308 9.90862 48.4525 9.50213C48.0742 9.09162 47.555 8.88636 46.895 8.88636C46.4402 8.88636 46.0337 8.98497 45.6755 9.18217C45.3213 9.37938 45.0416 9.66714 44.8364 10.0455C44.6311 10.4238 44.5285 10.8826 44.5285 11.4219ZM54.4728 4.63636V17H53.0481V4.63636H54.4728ZM60.8493 17.1932C60.0122 17.1932 59.2777 16.994 58.6459 16.5955C58.018 16.1971 57.527 15.6397 57.1729 14.9233C56.8227 14.2069 56.6476 13.3698 56.6476 12.4119C56.6476 11.446 56.8227 10.6029 57.1729 9.88246C57.527 9.16205 58.018 8.60263 58.6459 8.20419C59.2777 7.80575 60.0122 7.60653 60.8493 7.60653C61.6865 7.60653 62.4189 7.80575 63.0468 8.20419C63.6787 8.60263 64.1697 9.16205 64.5198 9.88246C64.874 10.6029 65.051 11.446 65.051 12.4119C65.051 13.3698 64.874 14.2069 64.5198 14.9233C64.1697 15.6397 63.6787 16.1971 63.0468 16.5955C62.4189 16.994 61.6865 17.1932 60.8493 17.1932ZM60.8493 15.9134C61.4852 15.9134 62.0084 15.7504 62.4189 15.4244C62.8295 15.0984 63.1333 14.6697 63.3305 14.1385C63.5277 13.6072 63.6263 13.0317 63.6263 12.4119C63.6263 11.7921 63.5277 11.2146 63.3305 10.6793C63.1333 10.1441 62.8295 9.71141 62.4189 9.38139C62.0084 9.05137 61.4852 8.88636 60.8493 8.88636C60.2135 8.88636 59.6903 9.05137 59.2797 9.38139C58.8692 9.71141 58.5654 10.1441 58.3682 10.6793C58.171 11.2146 58.0724 11.7921 58.0724 12.4119C58.0724 13.0317 58.171 13.6072 58.3682 14.1385C58.5654 14.6697 58.8692 15.0984 59.2797 15.4244C59.6903 15.7504 60.2135 15.9134 60.8493 15.9134ZM69.9545 17.2173C69.367 17.2173 68.8337 17.1067 68.3548 16.8853C67.8758 16.6599 67.4955 16.3359 67.2138 15.9134C66.9321 15.4867 66.7912 14.9716 66.7912 14.3679C66.7912 13.8366 66.8958 13.406 67.1051 13.076C67.3144 12.742 67.5941 12.4804 67.9442 12.2912C68.2944 12.102 68.6808 11.9612 69.1033 11.8686C69.5299 11.772 69.9586 11.6955 70.3892 11.6392C70.9527 11.5668 71.4094 11.5124 71.7596 11.4762C72.1138 11.436 72.3713 11.3696 72.5323 11.277C72.6973 11.1844 72.7798 11.0234 72.7798 10.794V10.7457C72.7798 10.1501 72.6168 9.68726 72.2908 9.35724C71.9689 9.02723 71.4799 8.86222 70.8239 8.86222C70.1437 8.86222 69.6104 9.01113 69.2241 9.30895C68.8377 9.60677 68.5661 9.92472 68.4091 10.2628L67.0568 9.77983C67.2983 9.21638 67.6203 8.7777 68.0227 8.46378C68.4292 8.14583 68.8719 7.92448 69.3509 7.79972C69.8338 7.67093 70.3087 7.60653 70.7756 7.60653C71.0734 7.60653 71.4155 7.64276 71.8018 7.7152C72.1922 7.78362 72.5685 7.92649 72.9308 8.14382C73.297 8.36115 73.6009 8.68916 73.8423 9.12784C74.0838 9.56652 74.2045 10.1541 74.2045 10.8906V17H72.7798V15.7443H72.7074C72.6108 15.9455 72.4498 16.1609 72.2244 16.3903C71.9991 16.6197 71.6992 16.8149 71.3249 16.9759C70.9506 17.1368 70.4938 17.2173 69.9545 17.2173ZM70.1719 15.9375C70.7353 15.9375 71.2102 15.8268 71.5966 15.6055C71.987 15.3841 72.2808 15.0984 72.478 14.7482C72.6792 14.3981 72.7798 14.0298 72.7798 13.6435V12.3395C72.7195 12.4119 72.5866 12.4783 72.3814 12.5387C72.1802 12.5951 71.9467 12.6454 71.6811 12.6896C71.4195 12.7299 71.1639 12.7661 70.9144 12.7983C70.6689 12.8265 70.4697 12.8506 70.3168 12.8707C69.9465 12.919 69.6004 12.9975 69.2784 13.1062C68.9605 13.2108 68.7029 13.3698 68.5057 13.5831C68.3125 13.7924 68.2159 14.0781 68.2159 14.4403C68.2159 14.9354 68.399 15.3097 68.7653 15.5632C69.1355 15.8127 69.6044 15.9375 70.1719 15.9375ZM80.3064 17.1932C79.5336 17.1932 78.8515 16.998 78.2599 16.6076C77.6682 16.2132 77.2054 15.6578 76.8714 14.9414C76.5373 14.221 76.3703 13.3698 76.3703 12.3878C76.3703 11.4138 76.5373 10.5687 76.8714 9.85227C77.2054 9.13589 77.6702 8.5825 78.2659 8.19212C78.8615 7.80173 79.5497 7.60653 80.3305 7.60653C80.9342 7.60653 81.4111 7.70715 81.7613 7.90838C82.1154 8.10559 82.3851 8.33097 82.5702 8.58452C82.7594 8.83404 82.9063 9.0393 83.0109 9.20028H83.1317V4.63636H84.5564V17H83.18V15.5753H83.0109C82.9063 15.7443 82.7574 15.9576 82.5642 16.2152C82.371 16.4687 82.0953 16.6961 81.7371 16.8974C81.3789 17.0946 80.902 17.1932 80.3064 17.1932ZM80.4996 15.9134C81.0711 15.9134 81.554 15.7644 81.9484 15.4666C82.3428 15.1648 82.6427 14.7482 82.8479 14.217C83.0532 13.6817 83.1558 13.0639 83.1558 12.3636C83.1558 11.6714 83.0552 11.0657 82.854 10.5465C82.6527 10.0233 82.3549 9.61683 81.9605 9.32706C81.5661 9.03326 81.0791 8.88636 80.4996 8.88636C79.8959 8.88636 79.3928 9.04131 78.9903 9.35121C78.5919 9.65708 78.2921 10.0736 78.0908 10.6009C77.8936 11.1241 77.795 11.7116 77.795 12.3636C77.795 13.0237 77.8956 13.6233 78.0969 14.1626C78.3021 14.6979 78.604 15.1245 79.0024 15.4425C79.4049 15.7564 79.9039 15.9134 80.4996 15.9134Z" fill="white"/>
<path d="M7.43759 17H6.43759V18H7.43759V17ZM7.43759 4.63636V3.63636H6.43759V4.63636H7.43759ZM14.5008 5.37891L13.999 6.24387L14.002 6.24564L14.5008 5.37891ZM16.4628 7.49787L15.566 7.94038L15.5668 7.94194L16.4628 7.49787ZM16.4568 14.1204L17.3527 14.5645L17.3535 14.5629L16.4568 14.1204ZM14.4525 16.2575L14.9439 17.1284L14.9469 17.1267L14.4525 16.2575ZM8.93475 15.6719H7.93475V16.6719H8.93475V15.6719ZM13.6979 15.0803L13.1918 14.2178L13.6979 15.0803ZM15.2071 8.21626L14.2952 8.62663L14.2961 8.62853L15.2071 8.21626ZM13.7462 6.55007L13.2301 7.40663L13.234 7.40897L13.7462 6.55007ZM8.93475 5.96449V4.96449H7.93475V5.96449H8.93475ZM11.2529 16H7.43759V18H11.2529V16ZM8.43759 17V4.63636H6.43759V17H8.43759ZM7.43759 5.63636H11.422V3.63636H7.43759V5.63636ZM11.422 5.63636C12.483 5.63636 13.328 5.85456 13.999 6.24387L15.0026 4.51395C13.9672 3.91319 12.7596 3.63636 11.422 3.63636V5.63636ZM14.002 6.24564C14.6757 6.63329 15.1949 7.18819 15.566 7.94038L17.3596 7.05536C16.8212 5.96427 16.0324 5.10653 14.9996 4.51218L14.002 6.24564ZM15.5668 7.94194C15.9383 8.6914 16.145 9.6307 16.145 10.794H18.145C18.145 9.3977 17.8969 8.13956 17.3588 7.0538L15.5668 7.94194ZM16.145 10.794C16.145 11.9648 15.9365 12.9151 15.56 13.6778L17.3535 14.5629C17.8947 13.4663 18.145 12.199 18.145 10.794H16.145ZM15.5608 13.6763C15.1883 14.4279 14.6579 14.9902 13.9581 15.3882L14.9469 17.1267C16.0018 16.5267 16.8077 15.6642 17.3527 14.5645L15.5608 13.6763ZM13.9611 15.3865C13.2664 15.7785 12.3783 16 11.2529 16V18C12.6389 18 13.8839 17.7265 14.9439 17.1284L13.9611 15.3865ZM8.93475 16.6719H11.1563V14.6719H8.93475V16.6719ZM11.1563 16.6719C12.3025 16.6719 13.3377 16.4511 14.204 15.9427L13.1918 14.2178C12.7138 14.4983 12.0547 14.6719 11.1563 14.6719V16.6719ZM14.204 15.9427C15.0592 15.4409 15.6991 14.7199 16.112 13.8086L14.2902 12.9833C14.043 13.5289 13.6808 13.9308 13.1918 14.2178L14.204 15.9427ZM16.112 13.8086C16.5138 12.9216 16.6961 11.9069 16.6961 10.794H14.6961C14.6961 11.6934 14.5484 12.4134 14.2902 12.9833L16.112 13.8086ZM16.6961 10.794C16.6961 9.68982 16.516 8.68321 16.1182 7.804L14.2961 8.62853C14.5502 9.19013 14.6961 9.90203 14.6961 10.794H16.6961ZM16.119 7.8059C15.7136 6.90501 15.092 6.18828 14.2583 5.69117L13.234 7.40897C13.6963 7.68459 14.0486 8.07865 14.2952 8.62663L16.119 7.8059ZM14.2622 5.69352C13.4209 5.18662 12.4236 4.96449 11.3254 4.96449V6.96449C12.159 6.96449 12.7755 7.13275 13.2301 7.40662L14.2622 5.69352ZM11.3254 4.96449H8.93475V6.96449H11.3254V4.96449ZM7.93475 5.96449V15.6719H9.93475V5.96449H7.93475ZM21.0267 16.5955L20.4909 17.4399L20.4933 17.4414L21.0267 16.5955ZM19.5537 14.9233L18.6553 15.3624L18.6573 15.3665L19.5537 14.9233ZM19.5537 9.88246L18.6563 9.44127L18.6543 9.44532L19.5537 9.88246ZM21.0267 8.20419L20.4933 7.35831L20.4909 7.35986L21.0267 8.20419ZM25.4276 8.20419L24.8918 9.04852L24.8943 9.05006L25.4276 8.20419ZM26.9007 9.88246L26.0013 10.3196L26.0032 10.3236L26.9007 9.88246ZM26.9007 14.9233L26.0042 14.4801L26.0022 14.4842L26.9007 14.9233ZM25.4276 16.5955L24.8943 15.7496L24.8918 15.7512L25.4276 16.5955ZM24.7998 15.4244L24.1779 14.6412L24.1779 14.6412L24.7998 15.4244ZM25.7114 14.1385L26.6489 14.4865L26.6489 14.4865L25.7114 14.1385ZM25.7114 10.6793L26.6497 10.3336L26.6497 10.3336L25.7114 10.6793ZM24.7998 9.38139L25.4264 8.60202L25.4264 8.60202L24.7998 9.38139ZM21.6606 9.38139L21.034 8.60202L21.034 8.60202L21.6606 9.38139ZM20.749 10.6793L19.8107 10.3336L19.8107 10.3336L20.749 10.6793ZM20.749 14.1385L19.8115 14.4865L19.8115 14.4865L20.749 14.1385ZM21.6606 15.4244L22.2825 14.6413L22.2825 14.6412L21.6606 15.4244ZM23.2302 16.1932C22.5584 16.1932 22.0135 16.0356 21.5601 15.7497L20.4933 17.4414C21.3036 17.9523 22.2278 18.1932 23.2302 18.1932V16.1932ZM21.5625 15.7512C21.101 15.4583 20.7294 15.045 20.4501 14.4801L18.6573 15.3665C19.0863 16.2343 19.6968 16.9359 20.4909 17.4399L21.5625 15.7512ZM20.4521 14.4842C20.181 13.9293 20.0285 13.2479 20.0285 12.4119H18.0285C18.0285 13.4917 18.2262 14.4845 18.6553 15.3624L20.4521 14.4842ZM20.0285 12.4119C20.0285 11.5667 20.1814 10.8786 20.4531 10.3196L18.6543 9.44532C18.2257 10.3271 18.0285 11.3253 18.0285 12.4119H20.0285ZM20.4511 10.3236C20.7308 9.75469 21.1024 9.34056 21.5625 9.04852L20.4909 7.35986C19.6954 7.8647 19.0849 8.56941 18.6563 9.44127L20.4511 10.3236ZM21.5601 9.05006C22.0135 8.76414 22.5584 8.60653 23.2302 8.60653V6.60653C22.2278 6.60653 21.3036 6.84737 20.4933 7.35832L21.5601 9.05006ZM23.2302 8.60653C23.9021 8.60653 24.4438 8.76417 24.8918 9.04852L25.9635 7.35986C25.1559 6.84734 24.2325 6.60653 23.2302 6.60653V8.60653ZM24.8943 9.05006C25.3569 9.34181 25.7265 9.75427 26.0013 10.3196L27.8001 9.44532C27.3745 8.56983 26.7621 7.86344 25.961 7.35832L24.8943 9.05006ZM26.0032 10.3236C26.2776 10.8816 26.4319 11.5683 26.4319 12.4119H28.4319C28.4319 11.3238 28.2321 10.3241 27.7981 9.44127L26.0032 10.3236ZM26.4319 12.4119C26.4319 13.2463 26.278 13.9263 26.0042 14.4801L27.7971 15.3665C28.2316 14.4876 28.4319 13.4933 28.4319 12.4119H26.4319ZM26.0022 14.4842C25.7279 15.0454 25.3583 15.457 24.8943 15.7497L25.961 17.4414C26.7607 16.9372 27.3731 16.2339 27.7991 15.3624L26.0022 14.4842ZM24.8918 15.7512C24.4438 16.0355 23.9021 16.1932 23.2302 16.1932V18.1932C24.2325 18.1932 25.1559 17.9524 25.9635 17.4399L24.8918 15.7512ZM23.2302 16.9134C24.0423 16.9134 24.799 16.702 25.4217 16.2075L24.1779 14.6412C23.9796 14.7987 23.6899 14.9134 23.2302 14.9134V16.9134ZM25.4217 16.2075C25.9867 15.7588 26.3935 15.1745 26.6489 14.4865L24.7739 13.7905C24.6349 14.165 24.4339 14.4379 24.1779 14.6412L25.4217 16.2075ZM26.6489 14.4865C26.8911 13.8339 27.0072 13.1394 27.0072 12.4119H25.0072C25.0072 12.9241 24.926 13.3806 24.7739 13.7905L26.6489 14.4865ZM27.0072 12.4119C27.0072 11.6844 26.8911 10.9888 26.6497 10.3336L24.773 11.025C24.9261 11.4404 25.0072 11.8999 25.0072 12.4119H27.0072ZM26.6497 10.3336C26.3952 9.64282 25.9899 9.05503 25.4264 8.60202L24.1732 10.1608C24.4308 10.3678 24.6331 10.6453 24.773 11.025L26.6497 10.3336ZM25.4264 8.60202C24.8035 8.10132 24.0451 7.88636 23.2302 7.88636V9.88636C23.6871 9.88636 23.975 10.0014 24.1732 10.1608L25.4264 8.60202ZM23.2302 7.88636C22.4153 7.88636 21.6569 8.10132 21.034 8.60202L22.2872 10.1608C22.4854 10.0014 22.7733 9.88636 23.2302 9.88636V7.88636ZM21.034 8.60202C20.4705 9.05503 20.0652 9.64282 19.8107 10.3336L21.6874 11.025C21.8273 10.6453 22.0296 10.3678 22.2872 10.1608L21.034 8.60202ZM19.8107 10.3336C19.5693 10.9888 19.4532 11.6844 19.4532 12.4119H21.4532C21.4532 11.8999 21.5343 11.4404 21.6874 11.025L19.8107 10.3336ZM19.4532 12.4119C19.4532 13.1394 19.5693 13.8339 19.8115 14.4865L21.6865 13.7905C21.5344 13.3806 21.4532 12.9241 21.4532 12.4119H19.4532ZM19.8115 14.4865C20.0669 15.1745 20.4737 15.7588 21.0387 16.2075L22.2825 14.6412C22.0265 14.4379 21.8255 14.165 21.6865 13.7905L19.8115 14.4865ZM21.0387 16.2075C21.6614 16.702 22.4181 16.9134 23.2302 16.9134V14.9134C22.7705 14.9134 22.4808 14.7987 22.2825 14.6413L21.0387 16.2075ZM31.3921 17L30.4356 17.2915L30.6514 18H31.3921V17ZM28.5669 7.72727V6.72727H27.2168L27.6103 8.01873L28.5669 7.72727ZM30.064 7.72727L31.0264 7.45558L30.8208 6.72727H30.064V7.72727ZM32.0683 14.8267L31.1059 15.0984L31.3115 15.8267H32.0683V14.8267ZM32.1649 14.8267V15.8267H32.9241L33.1281 15.0954L32.1649 14.8267ZM34.145 7.72727V6.72727H33.3857L33.1817 7.45861L34.145 7.72727ZM35.6663 7.72727L36.6301 7.46082L36.4273 6.72727H35.6663V7.72727ZM37.6222 14.8026L36.6584 15.069L36.8612 15.8026H37.6222V14.8026ZM37.7188 14.8026V15.8026H38.4749L38.681 15.0751L37.7188 14.8026ZM39.7231 7.72727V6.72727H38.967L38.761 7.45472L39.7231 7.72727ZM41.2203 7.72727L42.1768 8.01873L42.5703 6.72727H41.2203V7.72727ZM38.395 17V18H39.1357L39.3516 17.2915L38.395 17ZM36.9944 17L36.0326 17.2739L36.2394 18H36.9944V17ZM34.966 9.87642L35.9278 9.60256L35.721 8.87642H34.966V9.87642ZM34.8211 9.87642V8.87642H34.0661L33.8593 9.60256L34.8211 9.87642ZM32.7927 17V18H33.5477L33.7545 17.2739L32.7927 17ZM32.3487 16.7085L29.5234 7.43581L27.6103 8.01873L30.4356 17.2915L32.3487 16.7085ZM28.5669 8.72727H30.064V6.72727H28.5669V8.72727ZM29.1016 7.99897L31.1059 15.0984L33.0307 14.555L31.0264 7.45558L29.1016 7.99897ZM32.0683 15.8267H32.1649V13.8267H32.0683V15.8267ZM33.1281 15.0954L35.1082 7.99593L33.1817 7.45861L31.2016 14.558L33.1281 15.0954ZM34.145 8.72727H35.6663V6.72727H34.145V8.72727ZM34.7024 7.99373L36.6584 15.069L38.5861 14.5361L36.6301 7.46082L34.7024 7.99373ZM37.6222 15.8026H37.7188V13.8026H37.6222V15.8026ZM38.681 15.0751L40.6852 7.99982L38.761 7.45472L36.7567 14.53L38.681 15.0751ZM39.7231 8.72727H41.2203V6.72727H39.7231V8.72727ZM40.2637 7.43581L37.4384 16.7085L39.3516 17.2915L42.1768 8.01873L40.2637 7.43581ZM38.395 16H36.9944V18H38.395V16ZM37.9562 16.7261L35.9278 9.60256L34.0042 10.1503L36.0326 17.2739L37.9562 16.7261ZM34.966 8.87642H34.8211V10.8764H34.966V8.87642ZM33.8593 9.60256L31.8309 16.7261L33.7545 17.2739L35.7829 10.1503L33.8593 9.60256ZM32.7927 16H31.3921V18H32.7927V16ZM44.5285 17V18H45.5285V17H44.5285ZM43.1038 17H42.1038V18H43.1038V17ZM43.1038 7.72727V6.72727H42.1038V7.72727H43.1038ZM44.4802 7.72727H45.4802V6.72727H44.4802V7.72727ZM44.4802 9.17614H43.4802V10.1761H44.4802V9.17614ZM44.6009 9.17614V10.1761H45.2408L45.5089 9.59519L44.6009 9.17614ZM45.591 8.04119L46.1333 8.88139L46.1387 8.87789L45.591 8.04119ZM48.9536 7.9929L48.4737 8.87024L48.4795 8.87337L48.9536 7.9929ZM50.0523 9.15199L49.1592 9.60197L49.1607 9.60477L50.0523 9.15199ZM50.4447 17V18H51.4447V17H50.4447ZM49.02 17H48.02V18H49.02V17ZM48.4525 9.50213L47.7171 10.1798L47.7205 10.1834L48.4525 9.50213ZM45.6755 9.18217L45.1932 8.30615L45.189 8.30848L45.6755 9.18217ZM44.8364 10.0455L43.9574 9.56857L43.9574 9.56857L44.8364 10.0455ZM43.5285 11.4219V17H45.5285V11.4219H43.5285ZM44.5285 16H43.1038V18H44.5285V16ZM44.1038 17V7.72727H42.1038V17H44.1038ZM43.1038 8.72727H44.4802V6.72727H43.1038V8.72727ZM43.4802 7.72727V9.17614H45.4802V7.72727H43.4802ZM44.4802 10.1761H44.6009V8.17614H44.4802V10.1761ZM45.5089 9.59519C45.6454 9.29942 45.8472 9.06601 46.1333 8.88138L45.0487 7.20101C44.4493 7.58787 43.9911 8.11109 43.693 8.75708L45.5089 9.59519ZM46.1387 8.87789C46.3737 8.72408 46.738 8.60653 47.3055 8.60653V6.60653C46.4724 6.60653 45.6938 6.77876 45.0433 7.20449L46.1387 8.87789ZM47.3055 8.60653C47.7942 8.60653 48.1731 8.70583 48.4737 8.87022L49.4335 7.11558C48.7922 6.76482 48.0725 6.60653 47.3055 6.60653V8.60653ZM48.4795 8.87337C48.7541 9.02123 48.9814 9.2491 49.1593 9.60197L50.9453 8.70201C50.5999 8.01653 50.0948 7.47167 49.4277 7.11243L48.4795 8.87337ZM49.1607 9.60477C49.3299 9.93795 49.4447 10.4219 49.4447 11.108H51.4447C51.4447 10.2163 51.2979 9.39633 50.9439 8.69921L49.1607 9.60477ZM49.4447 11.108V17H51.4447V11.108H49.4447ZM50.4447 16H49.02V18H50.4447V16ZM50.02 17V11.2045H48.02V17H50.02ZM50.02 11.2045C50.02 10.3043 49.7833 9.46421 49.1845 8.82085L47.7205 10.1834C47.8783 10.353 48.02 10.6479 48.02 11.2045H50.02ZM49.1879 8.82445C48.5856 8.17095 47.7789 7.88636 46.895 7.88636V9.88636C47.3311 9.88636 47.5628 10.0123 47.7171 10.1798L49.1879 8.82445ZM46.895 7.88636C46.2908 7.88636 45.7152 8.01879 45.1932 8.30616L46.1578 10.0582C46.3522 9.95114 46.5895 9.88636 46.895 9.88636V7.88636ZM45.189 8.30848C44.6586 8.60382 44.2473 9.0342 43.9574 9.56857L45.7153 10.5223C45.8359 10.3001 45.9841 10.1549 46.162 10.0559L45.189 8.30848ZM43.9574 9.56857C43.6551 10.1258 43.5285 10.7574 43.5285 11.4219H45.5285C45.5285 11.0077 45.6072 10.7217 45.7153 10.5223L43.9574 9.56857ZM54.4728 4.63636H55.4728V3.63636H54.4728V4.63636ZM54.4728 17V18H55.4728V17H54.4728ZM53.0481 17H52.0481V18H53.0481V17ZM53.0481 4.63636V3.63636H52.0481V4.63636H53.0481ZM53.4728 4.63636V17H55.4728V4.63636H53.4728ZM54.4728 16H53.0481V18H54.4728V16ZM54.0481 17V4.63636H52.0481V17H54.0481ZM53.0481 5.63636H54.4728V3.63636H53.0481V5.63636ZM58.6459 16.5955L58.11 17.4399L58.1125 17.4414L58.6459 16.5955ZM57.1729 14.9233L56.2744 15.3624L56.2764 15.3665L57.1729 14.9233ZM57.1729 9.88246L56.2754 9.44127L56.2735 9.44532L57.1729 9.88246ZM58.6459 8.20419L58.1125 7.35831L58.11 7.35986L58.6459 8.20419ZM63.0468 8.20419L62.511 9.04852L62.5134 9.05006L63.0468 8.20419ZM64.5198 9.88246L63.6204 10.3196L63.6224 10.3236L64.5198 9.88246ZM64.5198 14.9233L63.6234 14.4801L63.6214 14.4842L64.5198 14.9233ZM63.0468 16.5955L62.5134 15.7496L62.511 15.7512L63.0468 16.5955ZM62.4189 15.4244L61.7971 14.6412L61.7971 14.6412L62.4189 15.4244ZM63.3305 14.1385L64.268 14.4865L64.268 14.4865L63.3305 14.1385ZM63.3305 10.6793L64.2689 10.3336L64.2689 10.3336L63.3305 10.6793ZM62.4189 9.38139L63.0455 8.60202L63.0455 8.60202L62.4189 9.38139ZM59.2797 9.38139L58.6532 8.60202L58.6532 8.60202L59.2797 9.38139ZM58.3682 10.6793L57.4298 10.3336L57.4298 10.3336L58.3682 10.6793ZM58.3682 14.1385L57.4307 14.4865L57.4307 14.4865L58.3682 14.1385ZM59.2797 15.4244L59.9016 14.6413L59.9016 14.6412L59.2797 15.4244ZM60.8493 16.1932C60.1775 16.1932 59.6327 16.0356 59.1792 15.7497L58.1125 17.4414C58.9228 17.9523 59.8469 18.1932 60.8493 18.1932V16.1932ZM59.1817 15.7512C58.7201 15.4583 58.3486 15.045 58.0693 14.4801L56.2764 15.3665C56.7055 16.2343 57.3159 16.9359 58.11 17.4399L59.1817 15.7512ZM58.0713 14.4842C57.8001 13.9293 57.6476 13.2479 57.6476 12.4119H55.6476C55.6476 13.4917 55.8453 14.4845 56.2744 15.3624L58.0713 14.4842ZM57.6476 12.4119C57.6476 11.5667 57.8006 10.8786 58.0722 10.3196L56.2735 9.44532C55.8449 10.3271 55.6476 11.3253 55.6476 12.4119H57.6476ZM58.0703 10.3236C58.35 9.75469 58.7215 9.34056 59.1817 9.04852L58.11 7.35986C57.3145 7.8647 56.7041 8.56941 56.2754 9.44127L58.0703 10.3236ZM59.1792 9.05006C59.6327 8.76414 60.1775 8.60653 60.8493 8.60653V6.60653C59.8469 6.60653 58.9228 6.84737 58.1125 7.35832L59.1792 9.05006ZM60.8493 8.60653C61.5213 8.60653 62.0629 8.76417 62.511 9.04852L63.5826 7.35986C62.775 6.84734 61.8517 6.60653 60.8493 6.60653V8.60653ZM62.5134 9.05006C62.9761 9.34181 63.3456 9.75427 63.6204 10.3196L65.4192 9.44532C64.9937 8.56983 64.3812 7.86344 63.5802 7.35832L62.5134 9.05006ZM63.6224 10.3236C63.8967 10.8816 64.051 11.5683 64.051 12.4119H66.051C66.051 11.3238 65.8512 10.3241 65.4172 9.44127L63.6224 10.3236ZM64.051 12.4119C64.051 13.2463 63.8972 13.9263 63.6234 14.4801L65.4162 15.3665C65.8508 14.4876 66.051 13.4933 66.051 12.4119H64.051ZM63.6214 14.4842C63.347 15.0454 62.9775 15.457 62.5134 15.7497L63.5802 17.4414C64.3798 16.9372 64.9923 16.2339 65.4182 15.3624L63.6214 14.4842ZM62.511 15.7512C62.0629 16.0355 61.5213 16.1932 60.8493 16.1932V18.1932C61.8517 18.1932 62.775 17.9524 63.5826 17.4399L62.511 15.7512ZM60.8493 16.9134C61.6614 16.9134 62.4181 16.702 63.0408 16.2075L61.7971 14.6412C61.5987 14.7987 61.3091 14.9134 60.8493 14.9134V16.9134ZM63.0408 16.2075C63.6058 15.7588 64.0126 15.1745 64.268 14.4865L62.393 13.7905C62.254 14.165 62.0531 14.4379 61.7971 14.6412L63.0408 16.2075ZM64.268 14.4865C64.5103 13.8339 64.6263 13.1394 64.6263 12.4119H62.6263C62.6263 12.9241 62.5452 13.3806 62.393 13.7905L64.268 14.4865ZM64.6263 12.4119C64.6263 11.6844 64.5102 10.9888 64.2689 10.3336L62.3922 11.025C62.5452 11.4404 62.6263 11.8999 62.6263 12.4119H64.6263ZM64.2689 10.3336C64.0144 9.64282 63.609 9.05503 63.0455 8.60202L61.7924 10.1608C62.0499 10.3678 62.2523 10.6453 62.3922 11.025L64.2689 10.3336ZM63.0455 8.60202C62.4227 8.10132 61.6642 7.88636 60.8493 7.88636V9.88636C61.3063 9.88636 61.5942 10.0014 61.7924 10.1608L63.0455 8.60202ZM60.8493 7.88636C60.0345 7.88636 59.276 8.10132 58.6532 8.60202L59.9063 10.1608C60.1045 10.0014 60.3924 9.88636 60.8493 9.88636V7.88636ZM58.6532 8.60202C58.0897 9.05503 57.6843 9.64282 57.4298 10.3336L59.3065 11.025C59.4464 10.6453 59.6488 10.3678 59.9063 10.1608L58.6532 8.60202ZM57.4298 10.3336C57.1884 10.9888 57.0724 11.6844 57.0724 12.4119H59.0724C59.0724 11.8999 59.1535 11.4404 59.3065 11.025L57.4298 10.3336ZM57.0724 12.4119C57.0724 13.1394 57.1884 13.8339 57.4307 14.4865L59.3057 13.7905C59.1535 13.3806 59.0724 12.9241 59.0724 12.4119H57.0724ZM57.4307 14.4865C57.6861 15.1745 58.0929 15.7588 58.6579 16.2075L59.9016 14.6412C59.6456 14.4379 59.4447 14.165 59.3057 13.7905L57.4307 14.4865ZM58.6579 16.2075C59.2805 16.702 60.0373 16.9134 60.8493 16.9134V14.9134C60.3896 14.9134 60.1 14.7987 59.9016 14.6413L58.6579 16.2075ZM68.3548 16.8853L67.929 17.7901L67.9352 17.793L68.3548 16.8853ZM67.2138 15.9134L66.3793 16.4644L66.3817 16.4681L67.2138 15.9134ZM67.1051 13.076L67.9496 13.6115L67.9525 13.6069L67.1051 13.076ZM69.1033 11.8686L69.3173 12.8455L69.3242 12.8439L69.1033 11.8686ZM70.3892 11.6392L70.2617 10.6474L70.2595 10.6477L70.3892 11.6392ZM71.7596 11.4762L71.8625 12.4709L71.8725 12.4698L71.7596 11.4762ZM72.5323 11.277L72.043 10.4048L72.0338 10.4101L72.5323 11.277ZM72.2908 9.35724L71.575 10.0556L71.5794 10.06L72.2908 9.35724ZM69.2241 9.30895L69.8346 10.101L69.8346 10.101L69.2241 9.30895ZM68.4091 10.2628L68.0728 11.2045L68.9319 11.5114L69.3161 10.6839L68.4091 10.2628ZM67.0568 9.77983L66.1377 9.38591L65.7186 10.3638L66.7205 10.7216L67.0568 9.77983ZM68.0227 8.46378L68.6378 9.25228L68.6388 9.25145L68.0227 8.46378ZM69.3509 7.79972L69.6029 8.76744L69.6085 8.76595L69.3509 7.79972ZM71.8018 7.7152L71.6175 8.69814L71.6292 8.70019L71.8018 7.7152ZM72.9308 8.14382L72.4163 9.00132L72.4204 9.0038L72.9308 8.14382ZM73.8423 9.12784L72.9663 9.61007L72.9663 9.61007L73.8423 9.12784ZM74.2045 17V18H75.2045V17H74.2045ZM72.7798 17H71.7798V18H72.7798V17ZM72.7798 15.7443H73.7798V14.7443H72.7798V15.7443ZM72.7074 15.7443V14.7443H72.0782L71.8059 15.3116L72.7074 15.7443ZM72.2244 16.3903L72.9378 17.0911L72.9378 17.0911L72.2244 16.3903ZM71.3249 16.9759L70.9298 16.0572L70.9298 16.0572L71.3249 16.9759ZM71.5966 15.6055L71.1033 14.7356L71.0995 14.7378L71.5966 15.6055ZM72.478 14.7482L71.6109 14.2499L71.6067 14.2575L72.478 14.7482ZM72.7798 12.3395H73.7798V9.57743L72.0116 11.6993L72.7798 12.3395ZM72.3814 12.5387L72.651 13.5018L72.6636 13.4981L72.3814 12.5387ZM71.6811 12.6896L71.8332 13.6781L71.8455 13.676L71.6811 12.6896ZM70.9144 12.7983L71.0284 13.7919L71.0424 13.7901L70.9144 12.7983ZM70.3168 12.8707L70.4461 13.8623L70.4472 13.8622L70.3168 12.8707ZM69.2784 13.1062L69.591 14.0561L69.5982 14.0537L69.2784 13.1062ZM68.5057 13.5831L67.7714 12.9042L67.7709 12.9048L68.5057 13.5831ZM68.7653 15.5632L68.196 16.3855L68.2064 16.3925L68.7653 15.5632ZM69.9545 16.2173C69.4952 16.2173 69.1075 16.1315 68.7743 15.9776L67.9352 17.793C68.5599 18.0818 69.2387 18.2173 69.9545 18.2173V16.2173ZM68.7806 15.9805C68.4591 15.8292 68.2222 15.6232 68.0458 15.3587L66.3817 16.4681C66.7688 17.0487 67.2925 17.4906 67.929 17.7901L68.7806 15.9805ZM68.0482 15.3623C67.8928 15.1269 67.7912 14.8118 67.7912 14.3679H65.7912C65.7912 15.1314 65.9713 15.8466 66.3793 16.4644L68.0482 15.3623ZM67.7912 14.3679C67.7912 13.9603 67.8723 13.7335 67.9496 13.6115L66.2606 12.5405C65.9194 13.0785 65.7912 13.713 65.7912 14.3679H67.7912ZM67.9525 13.6069C68.0691 13.4208 68.22 13.2788 68.4196 13.171L67.4689 11.4114C66.9682 11.6819 66.5597 12.0631 66.2577 12.5451L67.9525 13.6069ZM68.4196 13.171C68.6807 13.0299 68.9781 12.9198 69.3173 12.8454L68.8894 10.8918C68.3834 11.0026 67.908 11.1742 67.4689 11.4114L68.4196 13.171ZM69.3242 12.8439C69.7209 12.7541 70.1191 12.6831 70.5189 12.6308L70.2595 10.6477C69.798 10.708 69.339 10.7899 68.8825 10.8933L69.3242 12.8439ZM70.5167 12.631C71.0763 12.5591 71.524 12.5059 71.8625 12.4709L71.6567 10.4815C71.2949 10.5189 70.829 10.5744 70.2617 10.6474L70.5167 12.631ZM71.8725 12.4698C72.2605 12.4257 72.6865 12.3419 73.0308 12.1439L72.0338 10.4101C72.057 10.3968 72.0446 10.4083 71.9687 10.4279C71.8971 10.4464 71.7921 10.4661 71.6467 10.4826L71.8725 12.4698ZM73.0216 12.1491C73.5741 11.8392 73.7798 11.2942 73.7798 10.794H71.7798C71.7798 10.7916 71.7801 10.7241 71.828 10.6307C71.8807 10.5279 71.9623 10.4501 72.0431 10.4048L73.0216 12.1491ZM73.7798 10.794V10.7457H71.7798V10.794H73.7798ZM73.7798 10.7457C73.7798 9.96508 73.5616 9.22073 73.0023 8.65449L71.5794 10.06C71.6721 10.1538 71.7798 10.3351 71.7798 10.7457H73.7798ZM73.0066 8.65892C72.4288 8.06665 71.634 7.86222 70.8239 7.86222V9.86222C71.3258 9.86222 71.5089 9.9878 71.5751 10.0556L73.0066 8.65892ZM70.8239 7.86222C70.0082 7.86222 69.2322 8.04006 68.6136 8.51694L69.8346 10.101C69.9887 9.9822 70.2792 9.86222 70.8239 9.86222V7.86222ZM68.6136 8.51694C68.1379 8.88359 67.7443 9.32 67.5021 9.84167L69.3161 10.6839C69.3878 10.5294 69.5375 10.33 69.8346 10.101L68.6136 8.51694ZM68.7454 9.32104L67.3932 8.83809L66.7205 10.7216L68.0728 11.2045L68.7454 9.32104ZM67.976 10.1737C68.1643 9.73431 68.3927 9.44346 68.6378 9.25228L67.4077 7.67528C66.8479 8.11194 66.4323 8.69846 66.1377 9.38591L67.976 10.1737ZM68.6388 9.25145C68.9423 9.0141 69.262 8.85623 69.6029 8.76742L69.0988 6.83201C68.4818 6.99273 67.9162 7.27756 67.4066 7.67611L68.6388 9.25145ZM69.6085 8.76595C70.0133 8.658 70.4016 8.60653 70.7756 8.60653V6.60653C70.2158 6.60653 69.6543 6.68385 69.0932 6.83348L69.6085 8.76595ZM70.7756 8.60653C70.9956 8.60653 71.2739 8.63364 71.6176 8.69807L71.9861 6.73233C71.557 6.65187 71.1512 6.60653 70.7756 6.60653V8.60653ZM71.6292 8.70019C71.891 8.74607 72.1522 8.8429 72.4163 9.00131L73.4452 7.28633C72.9848 7.01008 72.4934 6.82116 71.9745 6.73021L71.6292 8.70019ZM72.4204 9.0038C72.6081 9.11519 72.7956 9.29994 72.9663 9.61007L74.7184 8.64561C74.4061 8.07837 73.9858 7.60711 73.4411 7.28384L72.4204 9.0038ZM72.9663 9.61007C73.0971 9.84765 73.2045 10.249 73.2045 10.8906H75.2045C75.2045 10.0593 75.0706 9.2854 74.7184 8.64561L72.9663 9.61007ZM73.2045 10.8906V17H75.2045V10.8906H73.2045ZM74.2045 16H72.7798V18H74.2045V16ZM73.7798 17V15.7443H71.7798V17H73.7798ZM72.7798 14.7443H72.7074V16.7443H72.7798V14.7443ZM71.8059 15.3116C71.7728 15.3805 71.6904 15.507 71.5111 15.6894L72.9378 17.0911C73.2092 16.8148 73.4488 16.5106 73.6089 16.1771L71.8059 15.3116ZM71.5111 15.6894C71.3974 15.8052 71.2155 15.9344 70.9298 16.0572L71.72 17.8945C72.183 17.6954 72.6007 17.4342 72.9378 17.0911L71.5111 15.6894ZM70.9298 16.0572C70.7137 16.1502 70.3997 16.2173 69.9545 16.2173V18.2173C70.588 18.2173 71.1876 18.1235 71.72 17.8945L70.9298 16.0572ZM70.1719 16.9375C70.8642 16.9375 71.5209 16.8013 72.0937 16.4732L71.0995 14.7378C70.8996 14.8523 70.6064 14.9375 70.1719 14.9375V16.9375ZM72.0898 16.4754C72.6194 16.1751 73.0527 15.7655 73.3493 15.239L71.6067 14.2575C71.5088 14.4313 71.3546 14.5931 71.1034 14.7356L72.0898 16.4754ZM73.345 15.2465C73.6293 14.7519 73.7798 14.2128 73.7798 13.6435H71.7798C71.7798 13.8469 71.7292 14.0443 71.611 14.2499L73.345 15.2465ZM73.7798 13.6435V12.3395H71.7798V13.6435H73.7798ZM72.0116 11.6993C72.0625 11.6383 72.1099 11.6004 72.1373 11.5807C72.1655 11.5605 72.1845 11.5508 72.1877 11.5492C72.1918 11.5472 72.1675 11.5593 72.0992 11.5793L72.6636 13.4981C72.8005 13.4578 72.9453 13.4065 73.0822 13.3381C73.2088 13.2747 73.3934 13.1652 73.5481 12.9797L72.0116 11.6993ZM72.1118 11.5757C71.9534 11.6201 71.7564 11.6633 71.5167 11.7032L71.8455 13.676C72.1371 13.6274 72.407 13.57 72.651 13.5017L72.1118 11.5757ZM71.529 11.7013C71.2751 11.7403 71.0275 11.7754 70.7864 11.8065L71.0424 13.7901C71.3004 13.7568 71.564 13.7194 71.8332 13.678L71.529 11.7013ZM70.8004 11.8048C70.5523 11.8333 70.347 11.8581 70.1863 11.8793L70.4472 13.8622C70.5924 13.8431 70.7856 13.8196 71.0284 13.7918L70.8004 11.8048ZM70.1874 11.8791C69.7587 11.9351 69.3482 12.0272 68.9586 12.1587L69.5982 14.0537C69.8525 13.9678 70.1343 13.903 70.4461 13.8623L70.1874 11.8791ZM68.9658 12.1563C68.5114 12.3059 68.1004 12.5484 67.7714 12.9042L69.24 14.262C69.3054 14.1912 69.4096 14.1158 69.591 14.0561L68.9658 12.1563ZM67.7709 12.9048C67.3645 13.345 67.2159 13.8976 67.2159 14.4403H69.2159C69.2159 14.3469 69.2285 14.296 69.2357 14.2746C69.2418 14.2567 69.2446 14.2569 69.2405 14.2614L67.7709 12.9048ZM67.2159 14.4403C67.2159 15.2209 67.5267 15.922 68.1961 16.3854L69.3345 14.741C69.2713 14.6973 69.2159 14.6499 69.2159 14.4403H67.2159ZM68.2064 16.3925C68.7814 16.78 69.4591 16.9375 70.1719 16.9375V14.9375C69.7497 14.9375 69.4897 14.8455 69.3241 14.7339L68.2064 16.3925ZM78.2599 16.6076L77.7051 17.4397L77.7091 17.4423L78.2599 16.6076ZM76.8714 14.9414L75.9641 15.3621L75.965 15.364L76.8714 14.9414ZM76.8714 9.85227L75.965 9.42967L75.965 9.42967L76.8714 9.85227ZM78.2659 8.19212L77.7177 7.35574L77.7177 7.35574L78.2659 8.19212ZM81.7613 7.90838L81.2629 8.77547L81.2748 8.78207L81.7613 7.90838ZM82.5702 8.58452L81.7626 9.17421L81.7679 9.18147L81.7733 9.18862L82.5702 8.58452ZM83.0109 9.20028L82.1725 9.74527L82.4682 10.2003H83.0109V9.20028ZM83.1317 9.20028V10.2003H84.1317V9.20028H83.1317ZM83.1317 4.63636V3.63636H82.1317V4.63636H83.1317ZM84.5564 4.63636H85.5564V3.63636H84.5564V4.63636ZM84.5564 17V18H85.5564V17H84.5564ZM83.18 17H82.18V18H83.18V17ZM83.18 15.5753H84.18V14.5753H83.18V15.5753ZM83.0109 15.5753V14.5753H82.4539L82.1607 15.0489L83.0109 15.5753ZM82.5642 16.2152L83.3596 16.8213L83.3642 16.8152L82.5642 16.2152ZM81.7371 16.8974L82.2194 17.7734L82.2269 17.7692L81.7371 16.8974ZM81.9484 15.4666L82.551 16.2647L82.5562 16.2607L81.9484 15.4666ZM82.8479 14.217L83.7807 14.5774L83.7816 14.575L82.8479 14.217ZM82.854 10.5465L81.9206 10.9055L81.9215 10.9079L82.854 10.5465ZM81.9605 9.32706L81.3631 10.129L81.3684 10.1329L81.9605 9.32706ZM78.9903 9.35121L79.5993 10.1444L79.6004 10.1435L78.9903 9.35121ZM78.0908 10.6009L77.1566 10.2443L77.1551 10.2482L78.0908 10.6009ZM78.0969 14.1626L77.1599 14.5122L77.1632 14.5207L78.0969 14.1626ZM79.0024 15.4425L78.3786 16.2242L78.3874 16.231L79.0024 15.4425ZM80.3064 16.1932C79.711 16.1932 79.2241 16.0458 78.8106 15.7729L77.7091 17.4423C78.4789 17.9502 79.3562 18.1932 80.3064 18.1932V16.1932ZM78.8146 15.7755C78.3921 15.4939 78.0432 15.0881 77.7777 14.5188L75.965 15.364C76.3677 16.2274 76.9444 16.9325 77.7052 17.4396L78.8146 15.7755ZM77.7786 14.5207C77.5183 13.9595 77.3703 13.258 77.3703 12.3878H75.3703C75.3703 13.4815 75.5563 14.4825 75.9641 15.3621L77.7786 14.5207ZM77.3703 12.3878C77.3703 11.5267 77.518 10.8319 77.7777 10.2749L75.965 9.42967C75.5567 10.3054 75.3703 11.3009 75.3703 12.3878H77.3703ZM77.7777 10.2749C78.042 9.70794 78.3907 9.30597 78.8141 9.02849L77.7177 7.35574C76.9498 7.85903 76.3688 8.56384 75.965 9.42967L77.7777 10.2749ZM78.8141 9.02849C79.2312 8.75508 79.725 8.60653 80.3305 8.60653V6.60653C79.3745 6.60653 78.4919 6.84838 77.7177 7.35574L78.8141 9.02849ZM80.3305 8.60653C80.8395 8.60653 81.1214 8.69404 81.263 8.77539L82.2596 7.04137C81.7008 6.72026 81.0289 6.60653 80.3305 6.60653V8.60653ZM81.2748 8.78207C81.538 8.92863 81.6837 9.06621 81.7626 9.17421L83.3778 7.99482C83.0864 7.59572 82.6929 7.28254 82.2478 7.03469L81.2748 8.78207ZM81.7733 9.18862C81.9557 9.42927 82.0865 9.61302 82.1725 9.74527L83.8494 8.6553C83.726 8.46558 83.563 8.23882 83.3671 7.98041L81.7733 9.18862ZM83.0109 10.2003H83.1317V8.20028H83.0109V10.2003ZM84.1317 9.20028V4.63636H82.1317V9.20028H84.1317ZM83.1317 5.63636H84.5564V3.63636H83.1317V5.63636ZM83.5564 4.63636V17H85.5564V4.63636H83.5564ZM84.5564 16H83.18V18H84.5564V16ZM84.18 17V15.5753H82.18V17H84.18ZM83.18 14.5753H83.0109V16.5753H83.18V14.5753ZM82.1607 15.0489C82.0782 15.1821 81.949 15.3688 81.7642 15.6152L83.3642 16.8152C83.5658 16.5464 83.7344 16.3065 83.8612 16.1016L82.1607 15.0489ZM81.7688 15.6092C81.6784 15.7277 81.5195 15.8726 81.2473 16.0255L82.2269 17.7692C82.6711 17.5197 83.0636 17.2098 83.3596 16.8212L81.7688 15.6092ZM81.2548 16.0214C81.0966 16.1085 80.8052 16.1932 80.3064 16.1932V18.1932C80.9988 18.1932 81.6613 18.0807 82.2194 17.7734L81.2548 16.0214ZM80.4996 16.9134C81.2531 16.9134 81.9568 16.7134 82.551 16.2647L81.3458 14.6686C81.1512 14.8155 80.889 14.9134 80.4996 14.9134V16.9134ZM82.5562 16.2607C83.1172 15.8314 83.519 15.2547 83.7807 14.5774L81.9151 13.8566C81.7663 14.2418 81.5684 14.4982 81.3407 14.6725L82.5562 16.2607ZM83.7816 14.575C84.0392 13.9032 84.1558 13.16 84.1558 12.3636H82.1558C82.1558 12.9678 82.0671 13.4602 81.9142 13.8589L83.7816 14.575ZM84.1558 12.3636C84.1558 11.5768 84.0417 10.8438 83.7864 10.1851L81.9215 10.9079C82.0687 11.2876 82.1558 11.766 82.1558 12.3636H84.1558ZM83.7873 10.1875C83.5276 9.51241 83.1226 8.93998 82.5526 8.52118L81.3684 10.1329C81.5872 10.2937 81.7778 10.5342 81.9206 10.9055L83.7873 10.1875ZM82.5579 8.5251C81.9615 8.08088 81.2547 7.88636 80.4996 7.88636V9.88636C80.9035 9.88636 81.1706 9.98565 81.3631 10.129L82.5579 8.5251ZM80.4996 7.88636C79.7182 7.88636 78.9889 8.09023 78.3802 8.55888L79.6004 10.1435C79.7967 9.99239 80.0735 9.88636 80.4996 9.88636V7.88636ZM78.3814 8.55799C77.8187 8.98999 77.4154 9.56612 77.1566 10.2443L79.0251 10.9574C79.1687 10.5811 79.3651 10.3242 79.5993 10.1444L78.3814 8.55799ZM77.1551 10.2482C76.909 10.9011 76.795 11.6108 76.795 12.3636H78.795C78.795 11.8125 78.8783 11.347 79.0266 10.9536L77.1551 10.2482ZM76.795 12.3636C76.795 13.1258 76.9114 13.846 77.16 14.5122L79.0338 13.8131C78.8799 13.4007 78.795 12.9216 78.795 12.3636H76.795ZM77.1632 14.5207C77.424 15.2011 77.8243 15.7817 78.3787 16.2241L79.6261 14.6608C79.3836 14.4673 79.1802 14.1948 79.0306 13.8046L77.1632 14.5207ZM78.3874 16.231C78.9939 16.704 79.7199 16.9134 80.4996 16.9134V14.9134C80.088 14.9134 79.8159 14.8087 79.6174 14.654L78.3874 16.231Z" fill="white"/>
</g>
<defs>
<filter id="filter0_d_6_11" x="3.43756" y="4.63636" width="85.1188" height="20.581" filterUnits="userSpaceOnUse" color-interpolation-filters="sRGB">
<feFlood flood-opacity="0" result="BackgroundImageFix"/>
<feColorMatrix in="SourceAlpha" type="matrix" values="0 0 0 0 0 0 0 0 0 0 0 0 0 0 0 0 0 0 127 0" result="hardAlpha"/>
<feOffset dy="4"/>
<feGaussianBlur stdDeviation="2"/>
<feComposite in2="hardAlpha" operator="out"/>
<feColorMatrix type="matrix" values="0 0 0 0 0 0 0 0 0 0 0 0 0 0 0 0 0 0 0.25 0"/>
<feBlend mode="normal" in2="BackgroundImageFix" result="effect1_dropShadow_6_11"/>
<feBlend mode="normal" in="SourceGraphic" in2="effect1_dropShadow_6_11" result="shape"/>
</filter>
<clipPath id="clip0_6_11">
<rect width="86" height="114.188" fill="white" transform="translate(2)"/>
</clipPath>
</defs>
</svg>
